# xmcd
#
# Track frame offsets: 
#        150
#        29732
#        79657
#        97150
#        139811
#        165824
#        194946
#        228251
#        273750
#        276235
#        286477
#        302225
#
# Disc length: 4344 seconds
#
# Revision: 0
# Processed by: cddbd v1.5.2PL0 Copyright (c) Steve Scherf et al.
# Submitted via: ExactAudioCopy v0.95b3
#
DISCID=af10f60c
DTITLE=Jimi Hendrix  - Ottawa 1968 (FTO 010 and bonus)  FLAC
DYEAR=1900
DGENRE=
TTITLE0=Killing Floor
TTITLE1=Tax Free
TTITLE2=Fire
TTITLE3=Red House
TTITLE4=Foxy Lady
TTITLE5=Hey Joe
TTITLE6=Spanish Castle Magic
TTITLE7=Purple Haze
TTITLE8=Wild Thing
TTITLE9=Sgt. Pepper's Lonely Hearts Club Band
TTITLE10=Fire
TTITLE11=Purple Haze
EXTD=
EXTT0=
EXTT1=
EXTT2=
EXTT3=
EXTT4=
EXTT5=
EXTT6=
EXTT7=
EXTT8=
EXTT9=
EXTT10=
EXTT11=
PLAYORDER=
